<?xml version="1.0" standalone="no"?>
<!DOCTYPE svg PUBLIC "-//W3C//DTD SVG 20010904//EN"
 "http://www.w3.org/TR/2001/REC-SVG-20010904/DTD/svg10.dtd">
<svg version="1.0" xmlns="http://www.w3.org/2000/svg"
 width="100.000000pt" height="100.000000pt" viewBox="0 0 100.000000 100.000000"
 preserveAspectRatio="xMidYMid meet">
<metadata>
Created by potrace 1.11, written by Peter Selinger 2001-2013
</metadata>
<g transform="translate(0.000000,100.000000) scale(0.100000,-0.100000)"
fill="#000000" stroke="none">
<path d="M673 992 c-13 -2 -29 -12 -36 -23 -8 -10 -16 -17 -18 -14 -5 5 -9
-24 -9 -70 0 -59 50 -109 78 -78 7 7 18 10 24 7 6 -4 8 -2 4 4 -3 6 -1 16 7
23 17 16 7 124 -13 142 -8 7 -25 11 -37 9z"/>
<path d="M507 928 c-9 -18 -13 -36 -11 -40 3 -4 0 -8 -5 -8 -6 0 -11 4 -11 10
0 5 -12 16 -27 23 -25 12 -30 12 -44 -3 -14 -15 -15 -22 -3 -56 8 -22 14 -40
14 -40 0 -1 11 -4 25 -7 21 -3 29 1 40 23 8 15 11 31 7 36 -4 5 1 2 10 -5 10
-7 16 -16 13 -20 -2 -4 11 -7 30 -7 18 0 31 4 29 8 -2 4 1 10 8 15 18 11 16
65 -2 83 -27 28 -56 23 -73 -12z"/>
<path d="M330 834 c-14 -25 -2 -54 31 -78 18 -13 23 -12 38 2 10 10 16 22 15
27 -1 6 -5 22 -8 36 -8 37 -59 46 -76 13z"/>
<path d="M565 772 c-3 -3 -13 -6 -23 -7 -44 -4 -122 -39 -166 -75 -26 -22 -45
-40 -42 -40 4 0 -1 -15 -11 -32 -20 -39 -21 -152 -3 -201 18 -49 31 -80 45
-107 21 -42 30 -93 38 -207 1 -11 5 -19 8 -17 8 4 23 -26 20 -39 -1 -5 3 -6 9
-2 5 3 10 2 10 -2 0 -36 152 -48 191 -15 39 33 50 69 48 153 -2 43 -7 79 -11
79 -4 0 -10 11 -14 25 -3 14 -11 25 -16 25 -6 0 -7 7 -4 16 3 8 2 12 -4 9 -11
-7 -12 -7 -15 57 -3 35 2 54 17 73 11 14 24 22 30 19 6 -4 8 -3 5 3 -3 5 6 25
21 44 33 41 42 121 19 165 -15 29 -62 76 -69 69 -2 -2 -20 0 -40 4 -20 5 -39
6 -43 3z"/>
<path d="M277 763 c-26 -25 23 -102 53 -83 8 5 17 7 21 5 3 -3 5 10 3 28 -2
17 -9 34 -14 35 -6 2 -8 7 -6 11 6 9 -48 13 -57 4z"/>
</g>
</svg>
